<svg xmlns="http://www.w3.org/2000/svg" version="1.1" xmlns:xlink="http://www.w3.org/1999/xlink" width="512" height="512" x="0" y="0" viewBox="0 0 512 512" style="enable-background:new 0 0 512 512" xml:space="preserve" class=""><g><path fill="#f25a3c" d="M507.606 145.568 366.432 4.394A15 15 0 0 0 355.826 0H156.174a15 15 0 0 0-10.606 4.394L4.394 145.568A15 15 0 0 0 0 156.174v199.651a15 15 0 0 0 4.394 10.606l141.174 141.174a15 15 0 0 0 10.606 4.394h199.651a15 15 0 0 0 10.606-4.394l141.174-141.174a15 15 0 0 0 4.394-10.606V156.174a14.995 14.995 0 0 0-4.393-10.606z" opacity="1" data-original="#f25a3c" class=""></path><path fill="#e43539" d="M512 156.17v199.66c0 3.97-1.58 7.79-4.39 10.6L366.43 507.61a15.003 15.003 0 0 1-10.6 4.39H256V0h99.83c3.97 0 7.79 1.58 10.6 4.39l141.18 141.18c2.81 2.81 4.39 6.63 4.39 10.6z" opacity="1" data-original="#e43539"></path><path fill="#e9f3fb" d="M237.171 106h37.658c8.728 0 15.613 7.422 14.958 16.126l-12.793 170c-.589 7.826-7.11 13.874-14.958 13.874h-12.073c-7.848 0-14.369-6.049-14.958-13.874l-12.792-170c-.654-8.704 6.23-16.126 14.958-16.126z" opacity="1" data-original="#e9f3fb" class=""></path><path fill="#d6e9f8" d="m289.79 122.13-12.8 170c-.58 7.82-7.11 13.87-14.95 13.87H256V106h18.83c8.73 0 15.61 7.42 14.96 16.13z" opacity="1" data-original="#d6e9f8"></path><path fill="#e9f3fb" d="M226.05 375.95v.1c0 16.541 13.409 29.95 29.95 29.95 16.541 0 29.95-13.409 29.95-29.95v-.1c0-16.541-13.409-29.95-29.95-29.95-16.541 0-29.95 13.409-29.95 29.95z" opacity="1" data-original="#e9f3fb" class=""></path><path fill="#d6e9f8" d="M285.95 375.95v.1c0 8.27-3.35 15.76-8.77 21.18S264.27 406 256 406v-60c16.54 0 29.95 13.41 29.95 29.95z" opacity="1" data-original="#d6e9f8"></path></g></svg>