<svg xmlns="http://www.w3.org/2000/svg" xmlns:xlink="http://www.w3.org/1999/xlink" version="1.1" width="512" height="512" x="0" y="0" viewBox="0 0 24 24" style="enable-background:new 0 0 512 512" xml:space="preserve" class=""><script xmlns=""/><g><g fill="#000" fill-rule="evenodd" clip-rule="evenodd"><path d="M3 12.5h12v-1H3z" fill="#fffafa" opacity="1" data-original="#000000" class=""/><path d="m6.146 8.146-3.5 3.5a.5.5 0 0 0 0 .708l3.5 3.5.708-.707L3.707 12l3.147-3.146zM8.5 4a.5.5 0 0 1 .5-.5h12a.5.5 0 0 1 .5.5v16a.5.5 0 0 1-.5.5H9a.5.5 0 0 1-.5-.5v-3h1v2.5h11v-15h-11V7h-1z" fill="#fffafa" opacity="1" data-original="#000000" class=""/></g></g></svg>