<svg xmlns="http://www.w3.org/2000/svg" version="1.1" xmlns:xlink="http://www.w3.org/1999/xlink" xmlns:svgjs="http://svgjs.dev/svgjs" width="1500" height="234" viewBox="0 0 1500 234"><g transform="matrix(1,0,0,1,-0.9090909090909918,-0.8688503708554691)"><svg viewBox="0 0 396 62" data-background-color="#ffffff" preserveAspectRatio="xMidYMid meet" height="234" width="1500" xmlns="http://www.w3.org/2000/svg" xmlns:xlink="http://www.w3.org/1999/xlink"><g id="tight-bounds" transform="matrix(1,0,0,1,0.2400000000000091,0.23020821791897106)"><svg viewBox="0 0 395.52 61.539583564162086" height="61.539583564162086" width="395.52"><g><svg viewBox="0 0 482.58973205894506 75.08690115101143" height="61.539583564162086" width="395.52"><g><rect width="4.899720865036324" height="54.603716104751435" x="69.3435167828189" y="10.241592523129999" fill="#ffffff" opacity="1" stroke-width="0" stroke="transparent" fill-opacity="1" class="rect-yte-0" data-fill-palette-color="primary" rx="1%" id="yte-0" data-palette-color="#ffffff"></rect></g><g transform="matrix(1,0,0,1,87.06973205894508,10.377422662694055)"><svg viewBox="0 0 395.52 54.33205582562332" height="54.33205582562332" width="395.52"><g id="textblocktransform"><svg viewBox="0 0 395.52 54.33205582562332" height="54.33205582562332" width="395.52" id="textblock"><g><svg viewBox="0 0 395.52 54.33205582562332" height="54.33205582562332" width="395.52"><g transform="matrix(1,0,0,1,0,0)"><svg width="395.52" viewBox="3.3 -34.9 318.83 43.8" height="54.33205582562332" data-palette-color="#ffffff"><g class="wordmark-text-0" data-fill-palette-color="primary" id="text-0"><path d="M29.25 0L23.95 0 23.95-34.9 29.25-34.9 29.25 0ZM8.6 0L3.3 0 3.3-34.9 8.6-34.9 8.6 0ZM24.65-15.85L7.85-15.85 7.85-20.35 24.65-20.35 24.65-15.85ZM48.7 0.6L48.7 0.6Q44.45 0.6 41.37-1.15 38.3-2.9 36.65-6.13 35-9.35 35-13.75L35-13.75Q35-18.25 36.65-21.43 38.3-24.6 41.37-26.35 44.45-28.1 48.75-28.1L48.75-28.1Q55.15-28.1 58.8-24.28 62.45-20.45 62.45-13.75L62.45-13.75Q62.45-9.35 60.8-6.13 59.15-2.9 56.07-1.15 53 0.6 48.7 0.6ZM48.75-3.6L48.75-3.6Q52.75-3.6 55.07-6.33 57.4-9.05 57.4-13.75L57.4-13.75Q57.4-18.5 55.07-21.2 52.75-23.9 48.75-23.9L48.75-23.9Q44.7-23.9 42.4-21.2 40.1-18.5 40.1-13.75L40.1-13.75Q40.1-9.05 42.4-6.33 44.7-3.6 48.75-3.6ZM82.84-28.1L82.84-28.1Q86.55-28.1 89.32-26.28 92.09-24.45 93.7-21.2 95.3-17.95 95.3-13.75L95.3-13.75Q95.3-9.6 93.7-6.35 92.09-3.1 89.32-1.25 86.55 0.6 82.84 0.6L82.84 0.6Q80.05 0.6 77.72-0.55 75.4-1.7 73.9-3.7L73.9-3.7 73.9 8.9 68.84 8.9 68.84-27.5 73.65-27.5 73.8-23.75Q75.3-25.75 77.65-26.93 80-28.1 82.84-28.1ZM81.75-3.65L81.75-3.65Q84.3-3.65 86.2-4.95 88.09-6.25 89.15-8.53 90.2-10.8 90.2-13.75L90.2-13.75Q90.2-16.75 89.15-19.03 88.09-21.3 86.2-22.58 84.3-23.85 81.75-23.85L81.75-23.85Q79.15-23.85 77.02-22.38 74.9-20.9 73.9-18.35L73.9-18.35 73.9-9.25Q74.9-6.65 77.02-5.15 79.15-3.65 81.75-3.65ZM115.34-28.1L115.34-28.1Q119.04-28.1 121.82-26.28 124.59-24.45 126.19-21.2 127.79-17.95 127.79-13.75L127.79-13.75Q127.79-9.6 126.19-6.35 124.59-3.1 121.82-1.25 119.04 0.6 115.34 0.6L115.34 0.6Q112.54 0.6 110.22-0.55 107.89-1.7 106.39-3.7L106.39-3.7 106.39 8.9 101.34 8.9 101.34-27.5 106.14-27.5 106.29-23.75Q107.79-25.75 110.14-26.93 112.49-28.1 115.34-28.1ZM114.24-3.65L114.24-3.65Q116.79-3.65 118.69-4.95 120.59-6.25 121.64-8.53 122.69-10.8 122.69-13.75L122.69-13.75Q122.69-16.75 121.64-19.03 120.59-21.3 118.69-22.58 116.79-23.85 114.24-23.85L114.24-23.85Q111.64-23.85 109.52-22.38 107.39-20.9 106.39-18.35L106.39-18.35 106.39-9.25Q107.39-6.65 109.52-5.15 111.64-3.65 114.24-3.65ZM156.19-8.8L136.84-8.8 136.84-13.3 156.19-13.3 156.19-8.8ZM131.64 0L142.44-34.9 150.04-34.9 160.84 0 155.39 0 148.34-23.1 146.24-30.75 144.14-23.05 136.99 0 131.64 0ZM179.49-12.75L170.34-12.75 170.34-17.25 179.44-17.25Q182.79-17.25 184.84-19.1 186.89-20.95 186.89-23.95L186.89-23.95Q186.89-26.85 184.99-28.63 183.09-30.4 179.94-30.4L179.94-30.4 170.34-30.4 170.34-34.9 179.94-34.9Q183.74-34.9 186.54-33.55 189.34-32.2 190.89-29.75 192.44-27.3 192.44-23.95L192.44-23.95Q192.44-20.6 190.84-18.07 189.24-15.55 186.31-14.15 183.39-12.75 179.49-12.75L179.49-12.75ZM171.84 0L166.54 0 166.54-34.9 171.84-34.9 171.84 0ZM213.89 0L208.59 0 208.59-34.9 213.89-34.9 213.89 0ZM199.84-30.4L199.84-34.9 222.59-34.9 222.59-30.4 199.84-30.4ZM199.84 0L199.84-4.5 222.59-4.5 222.59 0 199.84 0ZM241.68 0L230.93 0 230.93-34.9 241.68-34.9Q245.48-34.9 248.53-33.68 251.58-32.45 253.73-30.18 255.88-27.9 257.03-24.7 258.18-21.5 258.18-17.55L258.18-17.55Q258.18-13.55 257.03-10.33 255.88-7.1 253.73-4.78 251.58-2.45 248.53-1.23 245.48 0 241.68 0L241.68 0ZM236.23-30.4L236.23-4.5 241.68-4.5Q245.08-4.5 247.53-6.13 249.98-7.75 251.31-10.7 252.63-13.65 252.63-17.55L252.63-17.55Q252.63-21.5 251.31-24.38 249.98-27.25 247.53-28.83 245.08-30.4 241.68-30.4L241.68-30.4 236.23-30.4ZM276.18 0.6L276.18 0.6Q271.93 0.6 268.86-1.15 265.78-2.9 264.13-6.13 262.48-9.35 262.48-13.75L262.48-13.75Q262.48-18.25 264.13-21.43 265.78-24.6 268.86-26.35 271.93-28.1 276.23-28.1L276.23-28.1Q282.63-28.1 286.28-24.28 289.93-20.45 289.93-13.75L289.93-13.75Q289.93-9.35 288.28-6.13 286.63-2.9 283.56-1.15 280.48 0.6 276.18 0.6ZM276.23-3.6L276.23-3.6Q280.23-3.6 282.56-6.33 284.88-9.05 284.88-13.75L284.88-13.75Q284.88-18.5 282.56-21.2 280.23-23.9 276.23-23.9L276.23-23.9Q272.18-23.9 269.88-21.2 267.58-18.5 267.58-13.75L267.58-13.75Q267.58-9.05 269.88-6.33 272.18-3.6 276.23-3.6ZM309.53 0.6L309.53 0.6Q305.28 0.6 302.15-1.18 299.03-2.95 297.33-6.18 295.63-9.4 295.63-13.75L295.63-13.75Q295.63-18.2 297.38-21.43 299.13-24.65 302.28-26.38 305.43-28.1 309.63-28.1L309.63-28.1Q312.98-28.1 315.65-26.88 318.33-25.65 320-23.4 321.68-21.15 321.93-18.05L321.93-18.05 316.88-18.05Q316.48-20.85 314.5-22.38 312.53-23.9 309.63-23.9L309.63-23.9Q306.93-23.9 304.93-22.68 302.93-21.45 301.83-19.2 300.73-16.95 300.73-13.75L300.73-13.75Q300.73-9 303.15-6.3 305.58-3.6 309.53-3.6L309.53-3.6Q311.33-3.6 312.88-4.3 314.43-5 315.53-6.33 316.63-7.65 317.03-9.4L317.03-9.4 322.13-9.4Q321.63-6.3 319.85-4.08 318.08-1.85 315.4-0.63 312.73 0.6 309.53 0.6Z" fill="#ffffff" data-fill-palette-color="primary"></path></g></svg></g></svg></g></svg></g></svg></g><g><svg viewBox="0 0 56.51702237172904 75.08690115101143" height="75.08690115101143" width="56.51702237172904"><g><svg xmlns="http://www.w3.org/2000/svg" xmlns:xlink="http://www.w3.org/1999/xlink" version="1.1" x="0" y="0" viewBox="28.3 22.5 42 55.8" style="enable-background:new 0 0 100 100;" xml:space="preserve" height="75.08690115101143" width="56.51702237172904" class="icon-icon-0" data-fill-palette-color="accent" id="icon-0"><g fill="#ffffff" data-fill-palette-color="accent"><path d="M37.7 22.5L28.3 33V78.3H70.3V22.5zM36.9 26.4V32.4H31.5zM68.3 76.3H30.3V34.4H38.9V24.5H68.3z" fill="#ffffff" data-fill-palette-color="accent"></path><rect x="39.9" y="36" width="19.1" height="2" fill="#ffffff" data-fill-palette-color="accent"></rect><rect x="39.9" y="40.9" width="19.1" height="2" fill="#ffffff" data-fill-palette-color="accent"></rect><rect x="39.9" y="45.8" width="19.1" height="2" fill="#ffffff" data-fill-palette-color="accent"></rect><rect x="39.9" y="50.6" width="19.1" height="2" fill="#ffffff" data-fill-palette-color="accent"></rect></g></svg></g></svg></g></svg></g><defs></defs></svg><rect width="395.52" height="61.539583564162086" fill="none" stroke="none" visibility="hidden"></rect></g></svg></g></svg>