<svg xmlns="http://www.w3.org/2000/svg" version="1.1" xmlns:xlink="http://www.w3.org/1999/xlink" width="512" height="512" x="0" y="0" viewBox="0 0 256 256" style="enable-background:new 0 0 512 512" xml:space="preserve" class=""><g><path fill="#e63950" d="m191.282 196.422-50.205 39.946a18.993 18.993 0 0 1-23.444.163l-51.717-39.985c-23.487-18.159-36.84-43.682-36.84-70.418V74.395c0-7.251 4.129-13.87 10.642-17.059l81.492-39.9a18.995 18.995 0 0 1 16.939.117l78.365 39.719a18.994 18.994 0 0 1 10.407 16.942v52.73c.002 26.258-12.88 51.369-35.639 69.478z" opacity="1" data-original="#e63950" class=""></path><path fill="#d10028" d="m216.516 57.272-1.147-.581a18.967 18.967 0 0 1 1.554 7.523v52.73c0 26.258-12.881 51.369-35.641 69.478l-50.205 39.946a18.993 18.993 0 0 1-23.444.163l-51.717-39.984a108.375 108.375 0 0 1-4.928-4.047c4.38 5.04 9.37 9.75 14.928 14.047l51.717 39.984a18.995 18.995 0 0 0 23.444-.163l50.205-39.946c22.759-18.109 35.641-43.219 35.641-69.478v-52.73a18.994 18.994 0 0 0-10.407-16.942z" opacity="1" data-original="#d10028"></path><path fill="#b7022d" d="M218.624 58.518a18.978 18.978 0 0 1 3.298 10.696v52.73c0 26.258-12.881 51.369-35.641 69.478l-50.205 39.946a18.993 18.993 0 0 1-23.444.163l-51.717-39.984a107.056 107.056 0 0 1-7.587-6.446 105.026 105.026 0 0 0 12.587 11.446l51.717 39.984a18.995 18.995 0 0 0 23.444-.163l50.205-39.946c22.759-18.109 35.641-43.219 35.641-69.478v-52.73a18.992 18.992 0 0 0-8.298-15.696z" opacity="1" data-original="#b7022d"></path><path fill="#e8566f" d="M35.08 128.13a2 2 0 1 1-.001-3.999 2 2 0 0 1 .001 3.999zm0-8a2 2 0 0 1-2-2V74.4c0-5.68 3.3-10.97 8.4-13.47l81.49-39.899c.97-.48 2.2-.051 2.68.92a2 2 0 0 1-.92 2.67L43.24 64.52c-3.75 1.83-6.17 5.71-6.16 9.88v43.73c0 1.099-.9 2-2 2z" opacity="1" data-original="#e8566f"></path><path fill="#58595b" d="M167.586 185.532H88.414a5.195 5.195 0 0 1-5.195-5.195v-66.405a5.195 5.195 0 0 1 5.195-5.195h79.171a5.195 5.195 0 0 1 5.195 5.195v66.405a5.194 5.194 0 0 1-5.194 5.195z" opacity="1" data-original="#58595b"></path><path fill="#414042" d="M167.586 108.738h-4.805v61.599a5.195 5.195 0 0 1-5.195 5.195H83.22v4.805a5.195 5.195 0 0 0 5.195 5.195h79.171a5.195 5.195 0 0 0 5.195-5.195v-66.405a5.196 5.196 0 0 0-5.195-5.194z" opacity="1" data-original="#414042"></path><path fill="#f1f2f2" d="M165.971 108.738h-12.987V85.859c0-13.776-11.208-24.984-24.984-24.984s-24.984 11.208-24.984 24.984v22.879H90.029V85.859c0-20.937 17.033-37.971 37.971-37.971s37.971 17.033 37.971 37.971z" opacity="1" data-original="#f1f2f2"></path><path fill="#d1d3d4" d="M152.324 56.64c5.462 6.578 8.751 15.021 8.751 24.219v22.879h-7.987v5h12.987V85.859c0-11.739-5.356-22.249-13.751-29.219z" opacity="1" data-original="#d1d3d4"></path><path fill="#f1f2f2" d="m149.688 155.059-9.638-9.638 9.638-9.638a8.522 8.522 0 0 0-12.05-12.05L128 133.371l-9.638-9.638a8.522 8.522 0 0 0-12.05 12.05l9.638 9.638-9.638 9.638a8.522 8.522 0 0 0 12.05 12.05l9.638-9.638 9.638 9.638a8.522 8.522 0 0 0 12.05-12.05z" opacity="1" data-original="#f1f2f2"></path><path fill="#d1d3d4" d="m144.688 130.783-9.638 9.638 5 5 9.638-9.638a8.522 8.522 0 0 0 0-12.05 8.478 8.478 0 0 0-3.048-1.952 8.514 8.514 0 0 1-1.952 9.002zM149.688 155.059l-5-5a8.52 8.52 0 0 1-12.05 12.05l5 5a8.522 8.522 0 0 0 12.05-12.05zM113.362 162.109c-2.434 2.434-5.973 3.08-9.002 1.952a8.478 8.478 0 0 0 1.952 3.048 8.52 8.52 0 0 0 12.05 0l9.638-9.638-5-5z" opacity="1" data-original="#d1d3d4"></path></g></svg>